<svg xmlns="http://www.w3.org/2000/svg" width="637.523" height="537.66" viewBox="0 0 637.523 537.66">
  <g id="about-illustration" transform="translate(0)">
    <rect id="Retângulo_14" data-name="Retângulo 14" width="587.008" height="375.946" transform="translate(9.753 0.333)" fill="#e6e6e6"/>
    <rect id="Retângulo_15" data-name="Retângulo 15" width="553.437" height="306.552" transform="translate(26.538 47.486)" fill="#fff"/>
    <rect id="Retângulo_16" data-name="Retângulo 16" width="587.008" height="24.938" transform="translate(9.502)" fill="#a32ada"/>
    <circle id="Elipse_5" data-name="Elipse 5" cx="4.622" cy="4.622" r="4.622" transform="translate(23.412 8.128)" fill="#fff"/>
    <circle id="Elipse_6" data-name="Elipse 6" cx="4.622" cy="4.622" r="4.622" transform="translate(40.956 8.128)" fill="#fff"/>
    <circle id="Elipse_7" data-name="Elipse 7" cx="4.622" cy="4.622" r="4.622" transform="translate(58.501 8.128)" fill="#fff"/>
    <path id="Caminho_9" data-name="Caminho 9" d="M744.8,576.821l4.314,17.256-18.98,5.176-1.726-18.118Z" transform="translate(-117.003 -92.653)" fill="#a0616a"/>
    <path id="Caminho_10" data-name="Caminho 10" d="M661.42,601.858V618.25L642.439,621.7l-3.451-8.628,6.9-14.666Z" transform="translate(-102.639 -96.12)" fill="#a0616a"/>
    <path id="Caminho_11" data-name="Caminho 11" d="M916.483,519.477l-2.588,23.294,1.725,44.863s0,4.314,2.588,6.039c1.388.943,31.922,86.276,31.922,86.276s-6.9,8.628-19.843,6.039l-2.589-8.628s-3.451-11.216-5.177-13.8-27.608-55.216-27.608-55.216l-12.079-21.569-3.451,29.334s6.9,37.1,5.177,54.354-5.177,35.373-5.177,35.373l-20.706-3.451a14.406,14.406,0,0,0-2.588-7.765c-2.588-3.451-1.725-15.53-1.725-15.53V676.5l-5.177-66.432-9.49-87.139Z" transform="translate(-319.741 -192.33)" fill="#2f2e41"/>
    <circle id="Elipse_8" data-name="Elipse 8" cx="23.294" cy="23.294" r="23.294" transform="translate(514.781 123.536)" fill="#a0616a"/>
    <path id="Caminho_12" data-name="Caminho 12" d="M660.081,175.443l9.49,23.294L647.139,215.13l-13.8-24.158Z" transform="translate(-101.731 -28.181)" fill="#a0616a"/>
    <path id="Caminho_13" data-name="Caminho 13" d="M879.006,325.414l8.628-4.314,5.177,12.079s33.648,10.353,31.059,57.8-8.628,65.569-8.628,65.569,14.667,31.059,6.039,34.51-81.962,16.392-83.687,4.314,6.039-82.825,6.039-82.825-2.588-50.9,18.981-61.256l-4.314-9.49Z" transform="translate(-319.363 -160.466)" fill="#3f3d56"/>
    <path id="Caminho_14" data-name="Caminho 14" d="M828.139,525.644s-19.843,20.706-8.628,25.883,18.118-23.294,18.118-23.294Z" transform="translate(-315.946 -193.321)" fill="#a0616a"/>
    <path id="Caminho_15" data-name="Caminho 15" d="M870.189,743.662l9.49-3.451s10.353,23.294,1.726,23.294H858.973s-12.941-4.314-19.843-4.314-19.843-12.941-10.353-18.981,21.569-4.314,21.569-4.314l3.451-7.765,4.314,12.079S863.287,748.839,870.189,743.662Z" transform="translate(-317.447 -225.846)" fill="#2f2e41"/>
    <path id="Caminho_16" data-name="Caminho 16" d="M957.628,723.03s5.4-3.409,8.309-2.136,4.632,15.077,4.632,15.077,8.628,10.353-10.353,12.079-23.294-1.726-25.02-6.9,1.726-10.353,1.726-10.353l5.177-1.725s6.039-4.314,4.314-6.039,0-5.177,0-5.177S952.451,729.933,957.628,723.03Z" transform="translate(-335.003 -224.195)" fill="#2f2e41"/>
    <path id="Caminho_17" data-name="Caminho 17" d="M864.545,297.571a11.422,11.422,0,0,0-.507-2.217c-1.252-2.627-6.137-1.86-7.007-4.637-.17-.543-.135-1.135-.3-1.679a3.407,3.407,0,0,0-3.509-2.01,18.956,18.956,0,0,0-4.206,1.083c-3.413.969-7.044.6-10.571.221a10.635,10.635,0,0,1-4.514-1.175,3.637,3.637,0,0,1-1.812-3.967c.466-1.43,2.031-2.215,2.734-3.544,1.117-2.111-.248-4.836.658-7.046,1.454-3.544,6.955-2.832,9.75-5.452.678-.636,1.167-1.449,1.817-2.113,1.929-1.972,4.976-2.354,7.721-2.082s5.443,1.078,8.2,1.029c2.616-.046,5.358-.843,7.768.175a11.079,11.079,0,0,1,3.649,3l6.182,6.78a7.62,7.62,0,0,1,1.911,2.878c.372,1.3.03,2.694.188,4.036.362,3.06,3.227,5.372,3.614,8.43a10.964,10.964,0,0,1-.136,2.839l-.866,6.385a4.752,4.752,0,0,1-.488,1.789c-.252.43-.633.77-.916,1.18-.8,1.158-.727,2.688-1.125,4.038s-1.824,2.686-3.072,2.035c-.814-.425-1.353-3.935-2.341-4.847-1.377-1.27-2.1-1.113-3.8-1.092C870.162,301.65,865.634,301.942,864.545,297.571Z" transform="translate(-318.502 -151.113)" fill="#2f2e41"/>
    <path id="Caminho_18" data-name="Caminho 18" d="M867.583,364.264s25.883,10.353,18.118,33.648-28.471,94.9-28.471,94.9l-12.079,6.039-3.451,9.49L825.308,502.3l2.588-12.941,6.039-12.941,15.53-96.629S849.465,363.4,867.583,364.264Z" transform="translate(-317.429 -167.393)" fill="#3f3d56"/>
    <path id="Caminho_19" data-name="Caminho 19" d="M671.3,280.284l-26.746,91.452-11.216,11.217,6.471-11.648Z" transform="translate(-101.731 -45.021)" opacity="0.1"/>
    <path id="Caminho_20" data-name="Caminho 20" d="M267.791,427.631l5.043,35.861,21.292,38.1c6.164,5.6.56,19.051.56,19.051l-5.6-3.922L287.963,510s-24.654-28.017-30.818-34.74-8.4-43.705-8.4-43.705Z" transform="translate(-224.817 -177.577)" fill="#fbbebe"/>
    <path id="Caminho_21" data-name="Caminho 21" d="M246.111,716.072s1.121,12.888.56,16.249-17.37-.56-17.37-.56c2.8-5.6,4.483-22.413,4.483-22.413Z" transform="translate(-221.694 -222.829)" fill="#fbbebe"/>
    <path id="Caminho_22" data-name="Caminho 22" d="M345.684,721.042s1.681,17.93,1.121,21.292-17.37-.56-17.37-.56c2.8-5.6,4.483-22.413,4.483-22.413Z" transform="translate(-237.779 -224.437)" fill="#fbbebe"/>
    <circle id="Elipse_9" data-name="Elipse 9" cx="20.381" cy="20.381" r="20.381" transform="translate(53.188 168.398)" fill="#fbbebe"/>
    <path id="Caminho_23" data-name="Caminho 23" d="M303.056,374.68c-3.362,4.483-1.681,12.327-1.681,12.327s-34.18,39.784-40.343,39.784-5.043-28.016-5.043-28.016,8.965-10.646,14.008-12.887,14.008-26.335,14.008-26.335S306.418,370.2,303.056,374.68Z" transform="translate(-225.968 -166.642)" fill="#fbbebe"/>
    <path id="Caminho_24" data-name="Caminho 24" d="M321.917,468.362l21.933,36.843c4,6.586-3.443,39.921-3.443,39.921l-3.362,71.161-5.6,71.7v7.845l-18.491-.56-6.164-76.747-8.965-57.714-14.568,44.266-24.094,54.352a148.954,148.954,0,0,1-7.565,19.6l-4.483,7.844-16.805-1.964,25.491-86,5.043-56.033c.56-31.378,10.646-48.748,10.646-48.748v-6.724Z" transform="translate(-221.856 -184.12)" fill="#2f2e41"/>
    <path id="Caminho_25" data-name="Caminho 25" d="M243.535,732.772s2.8-4.483,2.8-2.8,7.284,6.164,7.284,6.164,7.284-1.121,8.4,7.284-10.086,10.086-12.887,9.526-10.086.56-10.086.56a50.007,50.007,0,0,1-14.568,0c-8.965-1.121-1.121-16.249,0-19.051s6.724-.56,6.724-.56C241.294,736.694,243.535,732.772,243.535,732.772Z" transform="translate(-220.239 -226.081)" fill="#2f2e41"/>
    <path id="Caminho_26" data-name="Caminho 26" d="M343.668,742.786s2.8-4.483,2.8-2.8,7.284,6.164,7.284,6.164,7.284-1.121,8.4,7.284-10.086,10.086-12.887,9.525-10.086.56-10.086.56a50.007,50.007,0,0,1-14.568,0c-8.965-1.121-1.121-16.249,0-19.051s6.724-.56,6.724-.56C341.427,746.707,343.668,742.786,343.668,742.786Z" transform="translate(-236.323 -227.689)" fill="#2f2e41"/>
    <path id="Caminho_27" data-name="Caminho 27" d="M293.165,390.936c14.008-14.568,29.137,21.853,29.137,21.853s5.043,13.448,1.121,20.732,3.922,23.534,3.922,23.534c-19.189,16.335-38.31,31.437-56.032,20.732,2.241-13.448-5.043-20.172-10.086-33.059s-14.568-10.086-14.568-10.086.56-14.568,2.241-26.335,16.81-16.185,16.81-16.185C268.452,397.047,279.157,405.5,293.165,390.936Z" transform="translate(-224.482 -171.13)" fill="#3f3d56"/>
    <path id="Caminho_28" data-name="Caminho 28" d="M327.791,419.631l5.043,35.861,21.292,38.1c6.164,5.6.56,19.051.56,19.051l-5.6-3.922L347.963,502s-24.654-28.017-30.818-34.74-8.4-43.705-8.4-43.705Z" transform="translate(-234.455 -176.292)" fill="#fbbebe"/>
    <path id="Caminho_29" data-name="Caminho 29" d="M330.863,419.725l-23.534,2.8s-1.681-27.456,1.873-34.313,16.618.693,16.618.693C329.182,389.468,330.863,419.725,330.863,419.725Z" transform="translate(-234.164 -170.784)" fill="#3f3d56"/>
    <path id="Caminho_30" data-name="Caminho 30" d="M324.066,337.719c-15.071,7.533-6.376,28.1-8.155,36.73C313,388.584,270.034,381.4,270.034,381.4c-5.227-.94-8.413-59.1,20.214-58.583C304.678,323.077,336.976,331.266,324.066,337.719Z" transform="translate(-227.681 -160.741)" fill="#2f2e41"/>
    <ellipse id="Elipse_10" data-name="Elipse 10" cx="2.098" cy="3.357" rx="2.098" ry="3.357" transform="translate(85.099 188.145)" fill="#fbbebe"/>
    <path id="Caminho_31" data-name="Caminho 31" d="M412.9,269.535c22.151,4.088,44.747,0,66.806-2.77l67.041-8.394c2.711-.344,6.656-1.964,8.251,1.351.9,1.855.294,5.876.361,8.008.176,5.876.159,11.751,0,17.627-.3,11.231-1.125,22.436-2.174,33.617-2.04,21.882-4.927,43.647-6.371,65.614-.739,11.18-1.108,22.394-.781,33.575.076,2.669.185,5.338.344,8,.176,2.98,1.511,7.4-1.738,9.393-1.855,1.142-5.506,1.083-7.63,1.419-3.358.529-6.715.948-10.14,1.293-22.571,2.258-45.435,1.318-68.09,1.184l-68.409-.353L373.68,439c-1.511,0-6.958.907-7.89-.89-.395-.764.655-4.34.839-5.3q.386-2.367.839-4.726c1.947-11.038,4.247-22.008,6.564-32.971,4.977-23.5,10.072-47.122,12.121-71.128,1.016-12.045.344-24.2,1.586-36.219.579-5.582,1.267-18.038,8.7-18.533,6.3-.42,12.775,0,19.087,0a1.259,1.259,0,0,0,0-2.518c-5.96,0-11.927-.159-17.887-.042-3.962.076-6.715,1.016-8.6,4.659-4.826,9.351-4.331,21.824-4.482,32.03-.361,24.434-4.113,48.348-9,72.245-2.459,12.028-5.112,24.014-7.554,36.051-1.15,5.75-2.25,11.516-3.257,17.3-.47,2.753-2.845,8.822-.755,11.348s8.52,1.167,11.4,1.184l20.027.118,38.376.218c24.8.143,49.674.839,74.461.109,11.835-.353,24.342-.839,35.866-3.668,3.433-.839,5.087-2.417,5.221-6.077.2-5.674-.722-11.525-.839-17.224-.839-48.768,10.618-96.855,9.443-145.64-.076-3.316,1.175-11.676-2.451-13.682-1.628-.907-3.744-.411-5.456-.21-3.274.378-6.539.839-9.812,1.225l-42.514,5.3c-13.589,1.679-27.171,3.492-40.785,5.036-14.412,1.679-28.967,2.678-43.328,0-1.586-.294-2.266,2.132-.672,2.426Z" transform="translate(-243.192 -149.868)" fill="#e6e6e6"/>
    <path id="Caminho_32" data-name="Caminho 32" d="M390.345,305.587l167.723-8.226c1.62-.084,1.628-2.6,0-2.518l-167.724,8.226C388.734,303.144,388.725,305.662,390.345,305.587Z" transform="translate(-247.368 -156.248)" fill="#e6e6e6"/>
    <path id="Caminho_33" data-name="Caminho 33" d="M451.918,281.36a4.2,4.2,0,0,0,1.486,6.774c2.258,1.032,4.91.168,7.151-.395,3.357-.839,6.715-1.586,10.165-2.2a138.621,138.621,0,0,1,22.739-2.115c3.475-.042,6.925.118,10.4.269,2.518.1,5.229.3,7.361-1.259,2.434-1.779,3.223-5.255.839-7.42-3.357-3.064-10.593-1.284-14.471-.965a324.519,324.519,0,0,0-41.851,6.245c-1.578.336-.915,2.77.671,2.426q13.657-2.946,27.523-4.734,6.816-.839,13.657-1.419c2.149-.176,4.3-.336,6.446-.462.839-.05,1.729-.143,2.585-.118,2.661.059,2.971-.42,1.377,2.8-1.419,2.846-.965,2.518-3.425,2.426-1.041,0-2.082-.118-3.122-.168q-3.2-.134-6.4-.143-6.807,0-13.581.655c-3.828.369-7.647.89-11.432,1.561-2.367.42-4.717.906-7.059,1.444-1.032.243-2.073.5-3.106.755-.5.134-1,.252-1.494.378q-2.753.957-4.692-2.518c1.125-1.167-.646-2.955-1.779-1.779Z" transform="translate(-257.269 -152.779)" fill="#e6e6e6"/>
    <path id="Caminho_34" data-name="Caminho 34" d="M480.7,325.222c-12.146-.47-25.265,2.812-33.264,12.591-6.262,7.647-9.829,20.766-3.2,29.378,7.126,9.233,22.755,7.6,32.182,3.668,9.972-4.2,20.884-12.851,23.88-23.679,3.735-13.522-8.394-23.746-21.026-23.9a1.26,1.26,0,0,0,0,2.518c7.2.084,14.269,3.173,17.627,9.879,3.517,7.068.487,14.488-4.2,20.145-7.5,9.007-19.238,15.8-31.191,15.6-7.177-.109-15.109-2.568-17.333-10.14-1.83-6.136-.436-12.842,2.753-18.282,6.9-11.751,20.942-15.73,33.818-15.226,1.62.059,1.62-2.459,0-2.518Z" transform="translate(-255.648 -160.816)" fill="#e6e6e6"/>
    <path id="Caminho_35" data-name="Caminho 35" d="M473.143,346.2a3.274,3.274,0,0,0-4.4,3.357c.252,3.274,3.861,4.2,6.572,4,2.342-.2,5.078-1.066,4.256-4a3.76,3.76,0,0,0-2.048-2.367,4.743,4.743,0,0,0-2.367-.294c-.311,0-3.156,1.041-1.947-.21l-1.981-.26a2.065,2.065,0,0,1,.6,1.679,1.267,1.267,0,0,0,1.889,1.083A1.679,1.679,0,0,1,476,351.164a1.267,1.267,0,0,0,2.3.974c.839-1.511,1.855-4.516.6-6.094-.839-1.066-2.459-.747-3.467-.126A12.15,12.15,0,0,0,473.7,347.4c-1.016.9-1.679,1.318-1.3-.4.63-3.131,3.618-5.624,6.346-6.874l-1.847-1.419a26.542,26.542,0,0,1-5.078,9.947l2.149.89a5.607,5.607,0,0,1,3.425-5.464h-1.234l.655,1.074c-.243,1.586,2.182,2.266,2.426.663.319-2.073-.99-4.768-3.416-3.752-2.9,1.209-4.4,4.524-4.34,7.479,0,1.007,1.427,1.788,2.157.9a29.6,29.6,0,0,0,5.716-11.071,1.276,1.276,0,0,0-1.855-1.419,14.076,14.076,0,0,0-6.111,5.322c-1.024,1.679-2.308,4.3-1.267,6.228a2.669,2.669,0,0,0,3.627,1.046l.024-.014a9.821,9.821,0,0,0,2.107-1.679c.311-.277.655-.755,1.066-.839.369-.252.353-.109-.059.445a4.575,4.575,0,0,1-.73,2.451l2.3.965a4.2,4.2,0,0,0-5.968-4.81l1.9,1.091a4.575,4.575,0,0,0-.949-2.963,1.276,1.276,0,0,0-1.973-.26,3.293,3.293,0,0,0,.084,4.877c1.2.915,1.788,0,3.106-.21,4.474-.579,1.863,1.435.285,1.5a5.949,5.949,0,0,1-2.107-.151q-2.627-.89-.327-2.292c1.5.613,2.149-1.821.671-2.426Z" transform="translate(-260.153 -163.147)" fill="#e6e6e6"/>
    <path id="Caminho_36" data-name="Caminho 36" d="M469.181,353c1.032,3.357-3.232,4.465-5.254,5.624a11.7,11.7,0,0,0-3.634,3.181c-2.115,2.837-2.9,6.446-3.6,9.846-.319,1.586,2.107,2.258,2.434.672a28.54,28.54,0,0,1,2.124-7.244c1.511-3,3.676-4.012,6.5-5.557s4.86-3.937,3.861-7.193C471.137,350.781,468.7,351.444,469.181,353Z" transform="translate(-258.215 -165.34)" fill="#e6e6e6"/>
    <path id="Caminho_37" data-name="Caminho 37" d="M474.008,351.283a2.434,2.434,0,0,0-2.1,2.518c0,1,.663,1.637,1.116,2.434a19.222,19.222,0,0,1,2.434,5.3c.4,1.8.8,5.036-.143,6.715-1.738,3.114-4.877,2.518-7.554,2.518-2.518,0-4.465.839-4.382-2.669.05-1.973,1.427-3.97,2.518-5.523l-2.3-.3a43.87,43.87,0,0,1,.764,7.773c0,1.167,1.788,1.813,2.342.63a48.624,48.624,0,0,0,3.2-8.847l-2.476-.336.436,6.379a1.267,1.267,0,0,0,2.342.638,2.854,2.854,0,0,0,.629-1.133c.084-.395-.688-3.055-1-2.107l2.468.336.176-6.06-2.518.336a12.54,12.54,0,0,1,.47,5.288c-.159,1.4,2.2,1.721,2.518.336l1.578-8.142-2.3.294a5.565,5.565,0,0,1,.428,3.626c-.185,1.612,2.333,1.595,2.518,0a8.847,8.847,0,0,0-.772-4.894,1.267,1.267,0,0,0-2.3.3l-1.586,8.142,2.476.336a13.733,13.733,0,0,0-.562-5.951,1.259,1.259,0,0,0-2.468.327l-.176,6.06a1.265,1.265,0,0,0,2.476.336l.134-.411a1.276,1.276,0,0,0-.319-1.225c-2.61-2.837-3.139,1.679-4.046,2.929l2.35.638-.436-6.379a1.267,1.267,0,0,0-2.476-.336,45.126,45.126,0,0,1-2.938,8.251l2.35.638a47.457,47.457,0,0,0-.839-8.444c-.218-1.158-1.738-1.108-2.3-.3-1.679,2.417-4.583,7.7-2.342,10.593,1.956,2.518,8.108,1.544,10.736,1.385,4.147-.235,5.649-2.862,6.1-6.774a16.587,16.587,0,0,0-.311-5.607c-.227-.99-2.518-7.269-3.206-7.143,1.595-.294.915-2.728-.672-2.434Z" transform="translate(-258.845 -165.314)" fill="#e6e6e6"/>
    <path id="Caminho_38" data-name="Caminho 38" d="M469.351,357.36l-6.874,9.074,2.174,1.267,5.036-7.286-2.3-.974-2.51,9.577a1.267,1.267,0,0,0,2.3.974,44.245,44.245,0,0,1,3.836-5.4l-2.1-1.225a13.707,13.707,0,0,1-3.164,5.817l2.107,1.225a11.245,11.245,0,0,1,.915-3.357c.646-1.452-1.4-2.736-2.174-1.276a29.541,29.541,0,0,1-2.426,3.811l2.3.3.512-2.392-2.3-.3.369,2.1a1.267,1.267,0,0,0,2.107.554,25.063,25.063,0,0,0,5.036-7.6h-2.166a11.308,11.308,0,0,1,1.184,3.357c.3,1.511,2.308.948,2.468-.336a68.237,68.237,0,0,0,.554-8.478h-2.518v5.28c0,1.368,2.241,1.771,2.476.336a9.619,9.619,0,0,1,1.234-3.609h-2.208a5.6,5.6,0,0,1,.839,2.854,1.259,1.259,0,1,0,2.518,0l.319-1.679h-2.426c.243,1.486,1.167,9.854-2.115,8.872-.554-.134-.713-.1-.478.092l.747-1.595,1.754-3.718-2.35-.638c.151,1.729.311,4.2-.73,5.674-.839,1.2-3.425,1.679-4.742.974a8.393,8.393,0,0,1-2.191-2.3l-1.721,1.679c1.393,1.016,3.651,3.509,5.448,3.651,1.368.109,2.518-1.024,3.416-1.931a14.63,14.63,0,0,0,4.1-10.769,1.259,1.259,0,1,0-2.518,0v2.871a1.259,1.259,0,1,0,2.518,0V355.8a1.259,1.259,0,1,0-2.518,0,30.22,30.22,0,0,1-.436,5.036l2.476.336a57.975,57.975,0,0,1-.277-6.035,1.259,1.259,0,0,0-2.468-.336c-.378,1.6-.839,3.181-1.284,4.751l2.3-.3-.176-.671c-.118-1.6-2.636-1.612-2.518,0a4.608,4.608,0,0,0,.52,1.947,1.272,1.272,0,0,0,2.3-.3c.478-1.578.907-3.156,1.284-4.751l-2.476-.336a57.975,57.975,0,0,0,.277,6.035c.126,1.293,2.208,1.847,2.468.336a34.686,34.686,0,0,0,.529-5.741H473.1v7.042h2.518v-2.871H473.1a12.1,12.1,0,0,1-3.064,8.629,10.314,10.314,0,0,1-1.058,1.041c-.6.571-1.142.487-1.62-.26a20.972,20.972,0,0,1-3.467-2.518c-1.041-.747-2.468.73-1.729,1.721,1.931,2.568,4.81,5.431,8.394,4.2,3.769-1.335,4.281-6.438,4-9.8-.092-1.116-1.763-1.872-2.342-.63-.839,1.771-1.679,3.534-2.518,5.313a4.694,4.694,0,0,0-.755,2.216c.277,1.889,2.568,1.578,3.979,1.469,5.464-.411,4.6-8.159,3.97-12.053-.21-1.293-2.09-1.091-2.426,0a7.411,7.411,0,0,0-.411,2.384h2.518a9.981,9.981,0,0,0-1.184-4.121,1.267,1.267,0,0,0-2.174,0,12.239,12.239,0,0,0-1.494,4.2l2.518.336v-5.28a1.259,1.259,0,1,0-2.518,0,68.249,68.249,0,0,1-.554,8.478l2.476-.336a14.412,14.412,0,0,0-1.435-3.928,1.267,1.267,0,0,0-2.174,0,22.966,22.966,0,0,1-4.642,7.084l2.107.554-.369-2.1c-.193-1.116-1.771-1.15-2.3-.3a5.523,5.523,0,0,0-.764,4.331c.21,1.192,1.721,1.066,2.3.3a29.466,29.466,0,0,0,2.426-3.8l-2.174-1.276a14.323,14.323,0,0,0-1.175,3.953c-.151,1.108,1.167,2.266,2.107,1.225a16.788,16.788,0,0,0,3.811-6.933c.311-1.142-1.267-2.224-2.107-1.225a48.09,48.09,0,0,0-4.2,5.876l2.3.974,2.56-9.544a1.267,1.267,0,0,0-2.3-.974l-5.036,7.294c-.94,1.351,1.217,2.518,2.174,1.267l6.849-9.065c.974-1.293-1.209-2.518-2.174-1.276Z" transform="translate(-259.065 -165.733)" fill="#e6e6e6"/>
    <path id="Caminho_39" data-name="Caminho 39" d="M597.983,377.161c10.072-6.161,18.08-15.352,26.977-23.041,9.653-8.335,19.784-16.1,30.217-23.452,20.262-14.269,41.541-27.036,62.8-39.77a1.259,1.259,0,0,0-1.267-2.174c-21.261,12.733-42.548,25.475-62.81,39.769-9.56,6.715-18.894,13.833-27.842,21.387-9.737,8.226-18.407,18.466-29.378,25.106-1.385.839-.118,3.022,1.267,2.174Z" transform="translate(-280.61 -155.241)" fill="#e6e6e6"/>
    <path id="Caminho_40" data-name="Caminho 40" d="M773.586,244.762c-10.912,1.108-22.663,3.886-29.378,13.43-5.8,8.209-5.674,22.529-.227,30.956,6.186,9.577,18.827,9.921,28.648,6.824s19.985-8.528,19.893-20.262c-.05-6.3-2.325-12.851-4.835-18.559-2.166-4.927-6-9.233-11.81-8.688-1.6.151-1.62,2.669,0,2.518,7.781-.722,10.282,8.52,12.129,14.353,1.679,5.448,3.232,11.894.6,17.308s-8.99,8.175-14.42,10.156c-5.876,2.132-12.33,3.433-18.466,1.679-12.154-3.4-15.512-18.8-12.011-29.731,4.029-12.591,18.3-16.292,29.924-17.467,1.595-.159,1.612-2.678,0-2.518Z" transform="translate(-303.707 -148.202)" fill="#e6e6e6"/>
    <path id="Caminho_41" data-name="Caminho 41" d="M793.586,360.762c-10.912,1.108-22.663,3.886-29.378,13.43-5.8,8.209-5.674,22.529-.227,30.956,6.186,9.577,18.827,9.921,28.648,6.824s19.985-8.528,19.893-20.262c-.05-6.3-2.325-12.851-4.835-18.559-2.166-4.927-6-9.233-11.81-8.688-1.6.151-1.62,2.669,0,2.518,7.781-.722,10.282,8.52,12.129,14.353,1.679,5.448,3.232,11.894.6,17.308s-8.99,8.176-14.42,10.156c-5.876,2.132-12.33,3.433-18.466,1.679-12.154-3.4-15.512-18.8-12.011-29.731,4.029-12.591,18.3-16.292,29.924-17.467,1.595-.159,1.612-2.678,0-2.518Z" transform="translate(-306.919 -166.835)" fill="#e6e6e6"/>
    <path id="Caminho_42" data-name="Caminho 42" d="M760.369,265.757l7.949,9.065a1.267,1.267,0,0,0,2.1-.562c1.679-4.415,1.36-8.99,1.754-13.631a44.882,44.882,0,0,1,3.567-13.908,46.946,46.946,0,0,1,18.785-21.53c1.385-.839.118-3.022-1.267-2.174a49.288,49.288,0,0,0-18.995,20.867,48.242,48.242,0,0,0-4.2,13.321c-.839,5.448-.076,11.155-2.09,16.385l2.107-.562-7.907-9.048c-1.074-1.217-2.845.571-1.779,1.779Z" transform="translate(-306.949 -144.68)" fill="#e6e6e6"/>
    <path id="Caminho_43" data-name="Caminho 43" d="M602.944,405.079q64.942-1.981,129.918-.839a1.26,1.26,0,0,0,0-2.518q-64.959-1.158-129.918.839C601.324,402.611,601.315,405.129,602.944,405.079Z" transform="translate(-281.516 -173.347)" fill="#e6e6e6"/>
    <path id="Caminho_44" data-name="Caminho 44" d="M768.583,375.741a260.134,260.134,0,0,1,42.531,21.37c1.377.839,2.644-1.318,1.268-2.174a262.909,262.909,0,0,0-43.093-21.622c-1.5-.6-2.157,1.838-.663,2.426Z" transform="translate(-308.189 -168.838)" fill="#e6e6e6"/>
    <path id="Caminho_45" data-name="Caminho 45" d="M796.033,362.553a102.823,102.823,0,0,0-24.686,62.558c-.067,1.62,2.451,1.62,2.518,0a100,100,0,0,1,23.947-60.779C798.861,363.107,797.09,361.32,796.033,362.553Z" transform="translate(-308.761 -167.057)" fill="#e6e6e6"/>
    <path id="Caminho_46" data-name="Caminho 46" d="M400.568,394.14l93.817-1.225,10.786-.143c1.939,0,3.878-.067,5.817-.076,2.728,0,4.566,2.266,4.516,5.036-.126,5.876-3.819,5.666-8.654,5.876l-11.659.529-47.475,2.09c-8.5.378-17.014.839-25.517,1.133-7.672.235-22.26-2.266-18.852-13.43.47-1.553-1.956-2.216-2.434-.671-1.679,5.49,1.293,11.063,6.077,13.942,6.791,4.079,15.738,2.694,23.234,2.359l58.286-2.644,14.152-.63c3.626-.168,8.671.571,12-1.116,3.911-1.973,4.6-9.8,2.132-13.1-1.267-1.679-3.047-1.83-5.036-1.905-5.221-.2-10.534.143-15.763.21l-29.059.386-66.4.839a1.26,1.26,0,0,0,0,2.518Z" transform="translate(-249.004 -171.549)" fill="#e6e6e6"/>
    <path id="Caminho_47" data-name="Caminho 47" d="M503.722,339.941l-27.25-16.417,7.958,30.8,4.8-11.222,8,10.729,2.373-1.769-8-10.729Z" transform="translate(-76.534 -51.967)" fill="#a32ada"/>
    <rect id="Retângulo_17" data-name="Retângulo 17" width="46.166" height="15.948" transform="translate(421.688 305.658)" fill="#a32ada"/>
    <path id="Caminho_48" data-name="Caminho 48" d="M316.831,184.941l27.25-16.417-7.958,30.8-4.8-11.222-8,10.729-2.373-1.769,8-10.729Z" transform="translate(-50.892 -27.07)" fill="#3f3d56"/>
    <rect id="Retângulo_18" data-name="Retângulo 18" width="46.166" height="15.948" transform="translate(225.274 176.394)" fill="#3f3d56"/>
  </g>
</svg>
