<svg xmlns="http://www.w3.org/2000/svg" width="12.623" height="12.623" viewBox="0 0 12.623 12.623">
  <path id="Icon_awesome-info-circle" data-name="Icon awesome-info-circle" d="M6.874.563a6.312,6.312,0,1,0,6.312,6.312A6.313,6.313,0,0,0,6.874.563Zm0,2.8A1.069,1.069,0,1,1,5.805,4.431,1.069,1.069,0,0,1,6.874,3.362ZM8.3,9.826a.305.305,0,0,1-.305.305H5.754a.305.305,0,0,1-.305-.305V9.215a.305.305,0,0,1,.305-.305H6.06V7.281H5.754a.305.305,0,0,1-.305-.305V6.365a.305.305,0,0,1,.305-.305H7.383a.305.305,0,0,1,.305.305V8.91h.305a.305.305,0,0,1,.305.305Z" transform="translate(-0.563 -0.563)" fill="#fff"/>
</svg>
