<svg xmlns="http://www.w3.org/2000/svg" width="32.652" height="24.489" viewBox="0 0 32.652 24.489">
  <path id="Icon_awesome-envelope" data-name="Icon awesome-envelope" d="M32.033,12.586a.384.384,0,0,1,.619.3V25.928a3.062,3.062,0,0,1-3.061,3.061H3.061A3.062,3.062,0,0,1,0,25.928V12.893a.381.381,0,0,1,.619-.3c1.429,1.11,3.323,2.519,9.827,7.245,1.346.982,3.616,3.048,5.88,3.036,2.277.019,4.592-2.092,5.886-3.036C28.717,15.112,30.6,13.7,32.033,12.586Zm-15.707,8.24c1.48.026,3.61-1.862,4.681-2.64,8.463-6.141,9.107-6.677,11.058-8.208a1.526,1.526,0,0,0,.587-1.205V7.561A3.062,3.062,0,0,0,29.591,4.5H3.061A3.062,3.062,0,0,0,0,7.561V8.773A1.535,1.535,0,0,0,.587,9.978c1.951,1.524,2.6,2.066,11.058,8.208C12.716,18.964,14.846,20.851,16.326,20.826Z" transform="translate(0 -4.5)" fill="#d842bd"/>
</svg>
