<svg xmlns="http://www.w3.org/2000/svg" width="25.323" height="25.324" viewBox="0 0 25.323 25.324">
  <path id="Icon_awesome-linkedin" data-name="Icon awesome-linkedin" d="M23.515,2.25H1.8A1.817,1.817,0,0,0,0,4.076V25.748a1.817,1.817,0,0,0,1.8,1.826H23.515a1.821,1.821,0,0,0,1.809-1.826V4.076A1.821,1.821,0,0,0,23.515,2.25ZM7.654,23.956H3.9V11.871H7.659V23.956ZM5.777,10.22A2.176,2.176,0,1,1,7.953,8.044,2.177,2.177,0,0,1,5.777,10.22ZM21.723,23.956H17.97V18.077c0-1.4-.028-3.205-1.95-3.205-1.956,0-2.255,1.526-2.255,3.1v5.98H10.011V11.871h3.6v1.651h.051a3.953,3.953,0,0,1,3.555-1.95c3.8,0,4.505,2.5,4.505,5.76Z" transform="translate(0 -2.25)" fill="#d842bd"/>
</svg>
