<svg xmlns="http://www.w3.org/2000/svg" width="31.626" height="30.836" viewBox="0 0 31.626 30.836">
  <path id="Icon_awesome-github" data-name="Icon awesome-github" d="M10.578,25.392c0,.128-.147.23-.332.23-.21.019-.357-.083-.357-.23,0-.128.147-.23.332-.23C10.412,25.143,10.578,25.245,10.578,25.392ZM8.6,25.105c-.045.128.083.274.274.312a.3.3,0,0,0,.4-.128c.038-.128-.083-.274-.274-.332A.327.327,0,0,0,8.6,25.105ZM11.414,25c-.185.045-.312.166-.293.312.019.128.185.21.376.166s.312-.166.293-.293S11.6,24.977,11.414,25ZM15.609.563A15.29,15.29,0,0,0,0,16.121,15.986,15.986,0,0,0,10.808,31.373c.816.147,1.1-.357,1.1-.772,0-.4-.019-2.576-.019-3.915,0,0-4.463.956-5.4-1.9,0,0-.727-1.856-1.773-2.334,0,0-1.46-1,.1-.982a3.366,3.366,0,0,1,2.461,1.645,3.371,3.371,0,0,0,4.648,1.333A3.544,3.544,0,0,1,12.95,22.3c-3.564-.4-7.161-.912-7.161-7.046a4.833,4.833,0,0,1,1.5-3.756,6.024,6.024,0,0,1,.166-4.33c1.333-.414,4.4,1.722,4.4,1.722a15.063,15.063,0,0,1,8.009,0s3.067-2.142,4.4-1.722a6.022,6.022,0,0,1,.166,4.33,4.957,4.957,0,0,1,1.645,3.756c0,6.153-3.756,6.644-7.32,7.046a3.771,3.771,0,0,1,1.084,2.959c0,2.149-.019,4.808-.019,5.331,0,.414.293.918,1.1.772a15.839,15.839,0,0,0,10.7-15.239C31.626,7.277,24.453.563,15.609.563ZM6.2,22.554c-.083.064-.064.21.045.332.1.1.249.147.332.064.083-.064.064-.21-.045-.332C6.427,22.516,6.281,22.472,6.2,22.554Zm-.689-.516c-.045.083.019.185.147.249a.19.19,0,0,0,.274-.045c.045-.083-.019-.185-.147-.249C5.656,21.955,5.554,21.974,5.509,22.038Zm2.066,2.27c-.1.083-.064.274.083.4.147.147.332.166.414.064.083-.083.045-.274-.083-.4C7.849,24.225,7.658,24.206,7.575,24.308Zm-.727-.937c-.1.064-.1.23,0,.376s.274.21.357.147a.291.291,0,0,0,0-.4C7.116,23.352,6.95,23.288,6.848,23.371Z" transform="translate(0 -0.563)" fill="#d842bd"/>
</svg>
