<svg xmlns="http://www.w3.org/2000/svg" width="15.438" height="15.687" viewBox="0 0 15.438 15.687">
  <path id="Icon_awesome-power-off" data-name="Icon awesome-power-off" d="M12.763,1.684a7.718,7.718,0,1,1-8.97,0,.749.749,0,0,1,1.089.24l.492.875a.747.747,0,0,1-.205.965,5.228,5.228,0,1,0,6.222,0,.743.743,0,0,1-.2-.962l.492-.875a.746.746,0,0,1,1.083-.243ZM9.526,8.217V.747A.745.745,0,0,0,8.779,0h-1a.745.745,0,0,0-.747.747v7.47a.745.745,0,0,0,.747.747h1A.745.745,0,0,0,9.526,8.217Z" transform="translate(-0.563)" fill="#fff"/>
</svg>
